HIERARCHY
ROOT Hips
{
	OFFSET	0.00	0.00	0.00
	CHANNELS 6 Xposition Yposition Zposition Zrotation Xrotation Yrotation
	JOINT LeftUpLeg
	{
		OFFSET	 0.126116	-0.014019	-0.065224
		CHANNELS 3 Zrotation Xrotation Yrotation
		JOINT LeftLeg
		{
			OFFSET	 0.000000	 0.000000	 0.569914
			CHANNELS 3 Zrotation Xrotation Yrotation
			JOINT LeftFoot
			{
				OFFSET	 0.000000	 0.000000	 0.544423
				CHANNELS 3 Zrotation Xrotation Yrotation
				JOINT LeftToeBase
				{
					OFFSET	 0.000000	 0.000000	 0.207117
					CHANNELS 3 Zrotation Xrotation Yrotation
					End Site
					{
						OFFSET	 0.000000	 0.000000	 0.207117
					}
				}
			}
		}
	}
	JOINT RightUpLeg
	{
		OFFSET	-0.124023	-0.008373	-0.065224
		CHANNELS 3 Zrotation Xrotation Yrotation
		JOINT RightLeg
		{
			OFFSET	 0.000000	 0.000000	 0.570047
			CHANNELS 3 Zrotation Xrotation Yrotation
			JOINT RightFoot
			{
				OFFSET	 0.000000	 0.000000	 0.544354
				CHANNELS 3 Zrotation Xrotation Yrotation
				JOINT RightToeBase
				{
					OFFSET	 0.000000	 0.000000	 0.207540
					CHANNELS 3 Zrotation Xrotation Yrotation
					End Site
					{
						OFFSET	 0.000000	 0.000000	 0.207540
					}
				}
			}
		}
	}
	JOINT Spine
	{
		OFFSET	 0.000184	-0.007763	 0.117403
		CHANNELS 3 Zrotation Xrotation Yrotation
		JOINT Spine1
		{
			OFFSET	 0.000000	 0.000000	 0.137269
			CHANNELS 3 Zrotation Xrotation Yrotation
			JOINT Spine2
			{
				OFFSET	 0.000000	 0.000000	 0.156879
				CHANNELS 3 Zrotation Xrotation Yrotation
				JOINT LeftShoulder
				{
					OFFSET	 0.080501	-0.002496	 0.160144
					CHANNELS 3 Zrotation Xrotation Yrotation
					JOINT LeftArm
					{
						OFFSET	 0.000000	 0.000000	 0.164363
						CHANNELS 3 Zrotation Xrotation Yrotation
						JOINT LeftForeArm
						{
							OFFSET	 0.000000	 0.000000	 0.364576
							CHANNELS 3 Zrotation Xrotation Yrotation
							JOINT LeftHand
							{
								OFFSET	 0.000000	 0.000000	 0.360812
								CHANNELS 3 Zrotation Xrotation Yrotation
								JOINT LeftHandIndex1
								{
									OFFSET	 0.000000	 0.000000	 0.086006
									CHANNELS 3 Zrotation Xrotation Yrotation
									JOINT LeftHandIndex2
									{
										OFFSET	 0.000000	 0.000000	 0.047236
										CHANNELS 3 Zrotation Xrotation Yrotation
										JOINT LeftHandIndex3
										{
											OFFSET	-0.004284	-0.000551	 0.038166
											CHANNELS 3 Zrotation Xrotation Yrotation
											End Site
											{
												OFFSET	-0.004284	-0.000551	 0.038166
											}
										}
									}
								}
							}
						}
					}
				}
				JOINT Neck
				{
					OFFSET	 0.000000	 0.000000	 0.176489
					CHANNELS 3 Zrotation Xrotation Yrotation
					JOINT Head
					{
						OFFSET	 0.000000	-0.001747	 0.077940
						CHANNELS 3 Zrotation Xrotation Yrotation
						End Site
						{
							OFFSET	 0.000000	-0.001747	 0.077940
						}
					}
				}
				JOINT RightShoulder
				{
					OFFSET	-0.080363	 0.000306	 0.159706
					CHANNELS 3 Zrotation Xrotation Yrotation
					JOINT RightArm
					{
						OFFSET	 0.000000	 0.000000	 0.164196
						CHANNELS 3 Zrotation Xrotation Yrotation
						JOINT RightForeArm
						{
							OFFSET	 0.000000	 0.000000	 0.365611
							CHANNELS 3 Zrotation Xrotation Yrotation
							JOINT RightHand
							{
								OFFSET	 0.000000	 0.000000	 0.360648
								CHANNELS 3 Zrotation Xrotation Yrotation
								JOINT RightHandIndex1
								{
									OFFSET	 0.000000	 0.000000	 0.069977
									CHANNELS 3 Zrotation Xrotation Yrotation
									JOINT RightHandIndex2
									{
										OFFSET	 0.000000	 0.000000	 0.052305
										CHANNELS 3 Zrotation Xrotation Yrotation
										JOINT RightHandIndex3
										{
											OFFSET	 0.009002	-0.000782	 0.042196
											CHANNELS 3 Zrotation Xrotation Yrotation
											End Site
											{
												OFFSET	 0.009002	-0.000782	 0.042196
											}
										}
									}
								}
							}
						}
					}
				}
			}
		}
	}
}
MOTION
Frames:    8
Frame Time: 0.03333334
 0.092402	 6.878887	 1.018392	 0.399558	 0.697317	 3.695580	 5.039679	-4.082853	 176.495800	-11.169320	-33.873060	-5.139844	 171.978700	 86.451100	 179.426500	-2.376918	 30.285270	-0.040127	 1.766600	-12.712210	 178.984600	 3.682367	-47.729370	 5.754848	-175.575600	 81.950070	-178.473000	 2.403637	 22.164960	-0.129779	-8.186885	 2.045331	-2.071857	-12.677170	-0.098634	-0.826380	-14.823800	-1.682861	-1.203448	-91.809780	 77.598140	 179.142500	 36.660250	 69.860290	-39.644330	-8.018088	-4.020146	-20.112100	 5.861435	-2.213436	-5.336075	-3.812334	 37.924440	-2.927599	-2.450526	 36.184240	 0.754587	-1.378229	 35.397820	-2.634230	 0.484123	 6.009340	-3.221633	-3.551176	-13.469520	-2.623332	 89.764930	 79.275580	-179.641100	-36.335980	 70.394560	 39.070800	 4.259337	-7.788404	 30.486940	-11.340140	-3.196645	 9.596282	 6.437017	 35.671460	-0.771858	 2.830251	 35.756010	-7.813440	-2.350882	 35.473990	 5.254307
 0.094018	 6.888672	 1.017831	 0.587110	 0.773227	 3.736878	 5.012340	-4.278249	 176.528500	-11.025980	-34.139370	-5.110787	 171.965100	 86.209400	 179.552000	-2.375918	 30.471450	-0.044254	 1.852276	-12.852630	 178.971500	 3.823722	-48.061770	 5.957543	-176.031300	 81.624710	-177.917100	 2.403568	 22.200780	-0.129057	-8.193882	 2.133196	-2.115128	-12.655650	 0.021658	-0.850673	-14.821370	-1.550417	-1.186128	-91.808880	 77.605090	 179.159000	 36.588740	 69.788420	-39.598980	-8.090400	-4.039764	-20.477650	 5.769426	-2.206473	-5.338359	-3.812334	 37.924440	-2.927599	-2.450526	 36.184240	 0.754587	-1.378229	 35.397820	-2.634230	 0.468455	 5.791339	-3.442783	-3.547338	-13.236970	-2.368472	 89.764270	 79.268150	-179.624000	-36.258220	 70.469570	 39.040500	 4.261411	-7.737073	 30.113760	-11.393980	-3.198880	 9.595054	 6.437017	 35.671460	-0.771858	 2.830251	 35.756010	-7.813440	-2.350882	 35.473990	 5.254307
 0.098056	 6.891289	 1.016822	 0.599054	 0.831009	 3.678921	 5.074179	-4.597321	 176.677500	-10.815370	-34.616910	-5.007859	 172.240600	 85.811230	 179.551200	-2.374483	 30.732960	-0.050088	 2.069419	-13.582120	 179.056000	 4.287441	-49.529320	 6.647741	-176.247300	 81.186390	-177.425200	 2.402001	 23.014830	-0.112557	-8.236616	 2.500930	-1.959672	-12.700930	 0.210630	-0.879574	-14.929170	-1.342258	-1.167742	-91.802800	 77.726990	 179.215900	 36.620550	 69.567190	-39.898780	-8.185143	-4.040269	-20.891890	 5.611425	-2.194739	-5.341973	-3.812334	 37.924440	-2.927599	-2.450526	 36.184240	 0.754587	-1.378229	 35.397820	-2.634230	 0.257507	 5.569129	-3.336723	-3.740035	-13.096770	-2.637468	 89.766290	 79.139980	-179.619600	-36.401570	 70.560180	 39.502680	 4.209698	-7.713273	 29.556660	-11.580920	-3.203611	 9.592542	 6.437017	 35.671460	-0.771858	 2.830251	 35.756010	-7.813440	-2.350882	 35.473990	 5.254307
 0.104040	 6.890663	 1.015535	 0.292548	 0.863906	 3.249702	 5.598528	-4.788214	 177.178900	-10.918510	-34.970360	-4.753199	 174.063400	 85.481220	 178.211500	-2.373079	 30.982780	-0.055682	 2.280991	-15.726410	 179.629400	 5.115620	-53.256470	 7.970446	-176.102900	 81.319560	-177.381300	 2.393894	 26.006400	-0.050751	-8.277497	 3.223244	-1.323186	-12.756970	 0.373712	-0.789562	-15.012810	-1.189895	-1.154399	-91.792810	 77.969460	 179.303500	 36.795160	 69.197670	-40.732430	-8.252902	-4.007402	-21.022550	 5.476690	-2.189191	-5.344162	-3.812334	 37.924440	-2.927599	-2.450526	 36.184240	 0.754587	-1.378229	 35.397820	-2.634230	 0.015277	 5.442445	-3.178360	-3.935022	-13.258700	-3.046376	 89.772640	 78.883370	-179.684000	-36.724000	 70.631780	 40.314340	 4.241958	-7.665043	 29.054870	-11.705370	-3.207624	 9.590173	 6.437017	 35.671460	-0.771858	 2.830251	 35.756010	-7.813440	-2.350882	 35.473990	 5.254307
 0.110699	 6.889891	 1.013790	-0.280373	 0.909310	 2.468815	 6.357717	-4.646851	 178.056500	-11.370170	-34.921960	-4.454630	 175.780600	 85.360890	 176.930300	-2.370942	 31.354380	-0.064035	 2.553293	-19.559990	-179.323200	 7.107647	-59.365360	 10.688630	-174.904000	 82.947490	-178.350900	 2.364186	 32.206310	 0.084913	-8.224601	 3.893925	-0.335189	-12.681650	 0.551971	-0.522395	-14.921800	-1.108415	-1.136712	-91.783660	 78.260400	 179.353300	 36.918900	 68.761970	-41.763110	-8.279789	-3.960425	-20.834550	 5.424489	-2.194492	-5.342950	-3.812334	 37.924440	-2.927599	-2.450526	 36.184240	 0.754587	-1.378229	 35.397820	-2.634230	-0.031843	 5.324252	-3.297250	-3.954412	-13.584260	-3.207278	 89.777450	 78.584050	-179.716200	-37.201570	 70.655540	 41.265690	 4.295048	-7.625793	 28.775390	-11.755540	-3.208416	 9.589822	 6.437017	 35.671460	-0.771858	 2.830251	 35.756010	-7.813440	-2.350882	 35.473990	 5.254307
 0.119073	 6.887956	 1.010865	-1.150997	 0.958619	 1.458478	 7.363551	-3.961684	 179.282000	-12.119480	-34.198110	-4.041463	 177.524000	 85.447320	 175.619400	-2.366957	 32.015250	-0.079018	 3.117875	-25.911730	-178.090500	 14.202070	-68.427700	 18.778870	-171.694200	 87.613370	 179.116400	 2.364624	 32.136730	 0.083319	-8.172593	 4.588258	 0.843427	-12.520370	 0.804891	-0.071490	-14.707800	-1.075030	-1.115945	-91.776890	 78.500870	 179.353900	 36.862050	 68.135620	-42.918390	-8.243537	-3.876062	-20.264550	 5.415488	-2.207805	-5.339475	-3.812334	 37.924440	-2.927599	-2.450526	 36.184240	 0.754587	-1.378229	 35.397820	-2.634230	 0.005555	 5.303658	-3.481987	-3.899632	-14.193530	-3.346852	 89.780400	 78.343610	-179.716000	-38.119320	 70.609390	 42.757850	 4.275517	-7.605097	 28.598820	-11.799900	-3.190324	 9.598650	 6.437017	 35.671460	-0.771858	 2.830251	 35.756010	-7.813440	-2.350882	 35.473990	 5.254307
 0.126027	 6.883435	 1.008335	-1.721050	 1.009452	 0.654309	 8.458943	-3.155696	-179.947100	-12.603790	-33.199810	-3.457807	 179.455000	 85.668400	 174.334800	-2.357099	 33.504130	-0.113402	 3.133785	-31.963220	-177.431000	 27.481980	-73.934360	 32.240790	-58.609450	 89.651140	 67.414170	 2.388204	 27.551030	-0.018025	-8.396977	 5.139017	 1.823582	-12.510080	 0.922307	 0.246570	-14.450560	-1.077690	-1.096553	-91.769530	 78.725270	 179.246900	 36.674600	 67.513460	-43.689670	-8.207900	-3.750806	-19.613440	 5.320957	-2.218748	-5.337625	-3.812334	 37.924440	-2.927599	-2.450526	 36.184240	 0.754587	-1.378229	 35.397820	-2.634230	 0.003885	 5.248474	-3.757744	-3.682424	-14.643170	-3.144816	 89.782600	 78.116940	-179.867800	-38.741410	 70.589380	 43.626380	 4.103572	-7.638825	 28.426740	-11.952730	-3.191077	 9.598113	 6.437017	 35.671460	-0.771858	 2.830251	 35.756010	-7.813440	-2.350882	 35.473990	 5.254307
 0.132733	 6.874424	 1.007687	-1.930235	 1.121314	 0.696642	 8.597165	-2.037379	-179.844700	-12.742760	-31.610240	-3.223672	 179.978900	 85.907150	 173.790900	-2.351148	 34.320980	-0.132656	 2.513314	-36.719820	-178.150100	 31.739500	-74.413360	 35.833100	-155.858500	 88.518400	 165.316400	 2.376544	 30.070940	 0.036813	-8.894877	 5.679010	 1.881486	-12.535910	 0.984024	 0.171770	-14.109900	-1.199738	-1.085456	-91.763940	 78.819970	 179.059800	 37.226310	 67.009630	-45.344970	-8.013437	-3.676285	-18.910580	 5.396859	-2.235765	-5.332959	-3.812334	 37.924440	-2.927599	-2.450526	 36.184240	 0.754587	-1.378229	 35.397820	-2.634230	 0.007890	 4.919390	-4.088940	-3.297873	-14.799420	-2.299327	 89.781390	 78.021640	 179.905000	-38.798550	 70.708010	 43.573250	 3.980451	-7.639939	 28.120090	-12.105510	-3.193519	 9.596702	 6.437017	 35.671460	-0.771858	 2.830251	 35.756010	-7.813440	-2.350882	 35.473990	 5.254307
